<svg width="20" height="18" viewBox="0 0 20 18" fill="none" xmlns="http://www.w3.org/2000/svg">
<rect width="20" height="18" fill="#F2F2F2"/>
<g clip-path="url(#clip0_0_1)">
<rect width="375" height="812" transform="translate(-16 -48)" fill="white"/>
<path d="M18.4003 4.16668H15.559L14.2257 0.833344H5.77433L4.441 4.16668H4V2.50001H2V4.16668H1.59967C0.717333 4.16668 0 4.88401 0 5.76634V15.5557C0 16.444 0.722667 17.1667 1.611 17.1667H18.389C19.2773 17.1667 20 16.444 20 15.5557V5.76634C20 4.88401 19.2827 4.16668 18.4003 4.16668ZM2.66667 3.16668H3.33333V4.16668H2.66667V3.16668ZM19.3333 15.5557C19.3333 16.0767 18.9097 16.5 18.389 16.5H1.611C1.09033 16.5 0.666667 16.0763 0.666667 15.5557V5.76634C0.666667 5.25201 1.08533 4.83334 1.59967 4.83334H2H4H4.89233L6.22567 1.50001H13.7743L15.1077 4.83334H18.4003C18.9147 4.83334 19.3333 5.25201 19.3333 5.76634V15.5557Z" fill="black"/>
<path d="M10 5C7.24292 5 5 7.24292 5 10C5 12.7571 7.24292 15 10 15C12.7571 15 15 12.7571 15 10C15 7.24292 12.7571 5 10 5ZM10 14.1667C7.7025 14.1667 5.83333 12.2975 5.83333 10C5.83333 7.7025 7.7025 5.83333 10 5.83333C12.2975 5.83333 14.1667 7.7025 14.1667 10C14.1667 12.2975 12.2975 14.1667 10 14.1667Z" fill="black"/>
</g>
<defs>
<clipPath id="clip0_0_1">
<rect width="375" height="812" fill="white" transform="translate(-16 -48)"/>
</clipPath>
</defs>
</svg>
