<svg width="16" height="16" viewBox="0 0 16 16" fill="none" xmlns="http://www.w3.org/2000/svg">
<path d="M11.6438 0.81189C13.7664 0.811992 15.5006 2.55249 15.7249 5.02087L15.7258 5.02869L15.7268 5.03748C15.7404 5.12281 15.8157 5.68695 15.594 6.62537C15.2745 7.9793 14.5363 9.21359 13.4553 10.1937L7.95337 15.1019L2.54614 10.1947C1.46461 9.21474 0.726047 7.97947 0.406494 6.62537C0.184643 5.68589 0.259995 5.12165 0.273682 5.03748L0.275635 5.0199C0.499679 2.5516 2.23441 0.811912 4.35669 0.81189C5.75509 0.81189 7.00798 1.55945 7.74048 2.81287L7.95337 3.1781L8.17017 2.81482C8.9084 1.57903 10.2182 0.81189 11.6438 0.81189Z" fill="white" stroke="black" stroke-width="0.5"/>
</svg>
